<svg height="512" viewBox="0 0 64 64" width="512" xmlns="http://www.w3.org/2000/svg"><g id="Fill_Outline" data-name="Fill Outline"><path d="m57 3 4 2-1.55 1.29a34.25 34.25 0 0 0 -7.45 8.71l-3 5-3-1 1.77-3.89a34.18 34.18 0 0 1 9.23-12.11z" fill="#e1ff85"/><path d="m54.41 8.59a3.61 3.61 0 0 0 -.67.93 3.58 3.58 0 0 1 -4 1.89 33.56 33.56 0 0 0 -2 3.7l-1.74 3.89 3 1 3-5a34.25 34.25 0 0 1 7.43-8.67l1.57-1.33-2-1z" fill="#c4f236"/><path d="m41 59 3-4 6 1v-6h5v-6l4-1-3-5 4-3-4-3 3-4-3-2 1-5-5-1v-5l-6 1-2-6-5 5-4-5-1 5-6-2-1 5h-6l2 5-6 3 3.45 4.22-4.45 5.78 4 3.45-.1.55z" fill="#c4f236"/><path d="m37 19-1 5-5 1 2 6-5 2 2 6-1 1-3.75 4.82 15.75 14.18 3-4 6 1v-6h5v-6l4-1-3-5 4-3-4-3 3-4-3-2 1-5-5-1v-5l-6 1-3 4z" fill="#a1d51c"/><path d="m44 55 6 1v-6h5v-6l4-1-3-5 4-3-4-3 3-4-3-2 1-5-5-1-4 5 1 5h-5l2 6h-5v4l-9.71 10.25 9.71 8.75z" fill="#7ab92d"/><path d="m47 40 4 3-5 4 1 5-5-1-1 8-4-3-2 5-5-4-4 4-4-4-4 3-4-6-5 2-1-5-5-2 3-4-3-3 3-2z" fill="#c4f236"/><path d="m51 43-4-3h-8.25c-4.17 4.84-11 8-18.75 8a25.39 25.39 0 0 1 -16.87-6.09l-.13.09 3 3-3 4 5 2 1 5 5-2 4 6 4-3 4 4 4-4 5 4 2-5 4 3 1-8 5 1-1-5z" fill="#a1d51c"/><path d="m45 40c0 5.52-8.06 14-18 14s-18-8.48-18-14z" fill="#e1ff85"/><path d="m38.75 40c-4.17 4.84-11 8-18.75 8a27.36 27.36 0 0 1 -7.94-1.16 20.09 20.09 0 0 0 14.94 7.16c9.94 0 18-8.48 18-14z" fill="#c4f236"/><path d="m14.65 43.82a10 10 0 0 0 4.41 4.31 2 2 0 0 0 2.94-1.78v-1.17a4 4 0 0 0 -4-4.18h-1.28a2 2 0 0 0 -2.07 2.82z" fill="#f9e109"/><path d="m37.52 41h-1.33a4 4 0 0 0 -4.19 4v1.35a2 2 0 0 0 2.94 1.78 10 10 0 0 0 4.41-4.31 2 2 0 0 0 -1.83-2.82z" fill="#f9e109"/><path d="m22 45v1a4 4 0 0 0 3.66 4h1.34s.9 0 1.34 0a4 4 0 0 0 3.66-4v-1a4 4 0 0 0 -4-4h-2a4 4 0 0 0 -4 4z" fill="#f9e109"/><path d="m37.8 41a22.84 22.84 0 0 1 -5.8 4.21v1.14a2 2 0 0 0 2.94 1.78 10 10 0 0 0 4.41-4.31 2 2 0 0 0 -1.55-2.82z" fill="#fcbc04"/><path d="m22.5 47.89a3.94 3.94 0 0 0 3.16 2.11h1.34s.9 0 1.34 0a4 4 0 0 0 3.66-4v-.75a26.17 26.17 0 0 1 -9.5 2.64z" fill="#fcbc04"/><path d="m21.15 48h-1.15q-.6 0-1.2 0l.26.16a2 2 0 0 0 2.09-.16z" fill="#fcbc04"/><g fill="#39519d"><path d="m40 36a1 1 0 0 0 1 1h5a1 1 0 0 0 .81-.42 1 1 0 0 0 .14-.9l-1.56-4.68h3.61a1 1 0 0 0 .77-.37 1 1 0 0 0 .23-.83l-1-5a1 1 0 0 0 -2 .4l.76 3.8h-3.76a1 1 0 0 0 -.81.42 1 1 0 0 0 -.14.9l1.56 4.68h-3.61a1 1 0 0 0 -1 1z"/><path d="m60.09 7.06 1.55-1.29a1 1 0 0 0 .36-.89 1 1 0 0 0 -.54-.77l-4-2a1 1 0 0 0 -1.09.12 35.33 35.33 0 0 0 -9.5 12.47l-.07.16h-.11l-1.69-5.18a1 1 0 0 0 -.77-.68 1 1 0 0 0 -.94.26l-4.21 4.24-3.3-4.12a1 1 0 0 0 -1.78.42l-.78 3.89-4.92-1.64a1 1 0 0 0 -1.3.75l-.82 4.2h-5.18a1 1 0 0 0 -.83.44 1 1 0 0 0 -.1.93l1.66 4.15-5.18 2.59a1 1 0 0 0 -.53.68 1 1 0 0 0 .21.84l2.95 3.61-4 5.15a1 1 0 1 0 1.58 1.22l4.46-5.78a1 1 0 0 0 0-1.24l-2.66-3.26 4.88-2.44a1 1 0 0 0 .48-1.26l-1.44-3.63h4.52a1 1 0 0 0 1-.8l.78-3.89 4.9 1.69a1 1 0 0 0 1.32-.8l.58-2.9 2.66 3.32a1 1 0 0 0 1.49.09l3.85-3.86 1.33 4-2.33 3.09-5.4-.9a1 1 0 0 0 -1.18.76l-.87 4.35-4.33.85a1 1 0 0 0 -.75 1.3l1.7 5.1-4.12 1.65a1 1 0 0 0 -.58 1.25l1 3a1 1 0 0 0 .95.7 1.25 1.25 0 0 0 .32 0 1 1 0 0 0 .68-1.32l-.7-2.1 4.12-1.65a1 1 0 0 0 .58-1.25l-1.64-4.92 3.84-.76a1 1 0 0 0 .8-.8l.81-4.05 5.05.84a1 1 0 0 0 1-.39l2.76-3.68 4.38-.74v3.82a1 1 0 0 0 .8 1l4 .8-.8 4a1 1 0 0 0 .43 1l2.12 1.42-2.35 3.18a1 1 0 0 0 .2 1.4l2.93 2.2-2.93 2.2a1 1 0 0 0 -.26 1.31l2.31 3.85-2.69.64a1 1 0 0 0 -.76 1v5h-3a1 1 0 0 0 0 2h4a1 1 0 0 0 1-1v-5.22l3.24-.78a1 1 0 0 0 .68-.59 1 1 0 0 0 -.06-.89l-2.54-4.23 3.28-2.49a1 1 0 0 0 0-1.6l-3.2-2.4 2.4-3.2a1.06 1.06 0 0 0 .19-.77 1 1 0 0 0 -.44-.66l-2.44-1.63.89-4.34a1 1 0 0 0 -.8-1.2l-4.2-.82v-3.89a33 33 0 0 1 7.09-8.23zm-10.89 7.39a33.39 33.39 0 0 1 7.94-10.26l2 1-.38.32a34.88 34.88 0 0 0 -7.41 8.56z"/><path d="m47.1 47.4 4.53-3.62a1 1 0 0 0 .37-.78 1 1 0 0 0 -.4-.78l-4-3a1 1 0 0 0 -.6-.22h-4a1 1 0 0 0 0 2h.9c-.9 5-8.27 12-16.9 12s-16-7-16.9-12h.9a1 1 0 0 0 0-2h-5a1 1 0 0 0 -.55.17l-3 2a1 1 0 0 0 -.45.73 1 1 0 0 0 .29.81l2.39 2.38-2.48 3.31a1 1 0 0 0 -.16.87 1 1 0 0 0 .59.66l4.5 1.8.87 4.47a1 1 0 0 0 .5.68 1 1 0 0 0 .85 0l4.25-1.7 3.55 5.32a1 1 0 0 0 1.43.25l3.31-2.48 3.38 3.39a1 1 0 0 0 1.42 0l3.36-3.37 4.31 3.44a1 1 0 0 0 .64.27 1.07 1.07 0 0 0 .25 0 1 1 0 0 0 .68-.6l1.51-3.79 3 2.22a1 1 0 0 0 1 .12 1 1 0 0 0 .6-.8l.87-6.93 3.89.78a1 1 0 0 0 1.2-1.2zm-1.72-1.18a1 1 0 0 0 -.36 1l.71 3.53-3.53-.75a1 1 0 0 0 -.78.17 1 1 0 0 0 -.41.69l-.79 6.29-2.62-2a1 1 0 0 0 -.87-.16 1 1 0 0 0 -.66.59l-1.5 3.75-3.94-3.16a1 1 0 0 0 -1.34.07l-3.29 3.35-3.29-3.3a1 1 0 0 0 -1.31-.09l-3.15 2.37-3.42-5.12a1 1 0 0 0 -1.2-.38l-3.88 1.56-.75-3.83a1 1 0 0 0 -.61-.73l-3.81-1.51 2.22-3a1 1 0 0 0 -.09-1.31l-2.14-2.09 1.73-1.16h1.78c.83 5.87 8.67 14 18.92 14s18.09-8.13 18.92-14h.75l2.7 2z"/><path d="m18.59 49a3 3 0 0 0 2.95-.08 3 3 0 0 0 .28-.22 5 5 0 0 0 3.77 2.3h1.41s.95 0 1.41 0a5 5 0 0 0 3.77-2.24 3 3 0 0 0 .28.22 3 3 0 0 0 2.95.08 10.9 10.9 0 0 0 4.84-4.75 3 3 0 0 0 -.17-2.85 3 3 0 0 0 -2.56-1.46h-1.33a5.21 5.21 0 0 0 -4.19 2 5 5 0 0 0 -4-2h-2a5 5 0 0 0 -4 2 4.86 4.86 0 0 0 -4-2h-1.28a3.28 3.28 0 0 0 -2.81 1.47 2.87 2.87 0 0 0 -.16 2.78 10.87 10.87 0 0 0 4.84 4.75zm17.6-7h1.33a1 1 0 0 1 .86.48.89.89 0 0 1 .06.91 8.8 8.8 0 0 1 -4 3.85 1 1 0 0 1 -1.44-.89v-1.35a3 3 0 0 1 3.19-3zm-13.19 3a3 3 0 0 1 3-3h2a3 3 0 0 1 3 3v1a3 3 0 0 1 -2.73 3 21.52 21.52 0 0 1 -2.54 0 3 3 0 0 1 -2.73-3zm-7.4-2.46a1.29 1.29 0 0 1 1.12-.54h1.28a3.06 3.06 0 0 1 3 3.18v1.17a1 1 0 0 1 -.49.87 1 1 0 0 1 -1 0 8.8 8.8 0 0 1 -4-3.85.86.86 0 0 1 .09-.83z"/></g></g></svg>